<svg width="18" height="18" viewBox="0 0 18 18" version="1.1" xmlns="http://www.w3.org/2000/svg" xmlns:xlink="http://www.w3.org/1999/xlink">
<title>facebook</title>
<desc>Created using Figma</desc>
<g id="Canvas" transform="translate(-5118 -1018)">
<g id="ic/24/social/facebook">
<g id="Shape">
<use xlink:href="#path0_fill" transform="translate(5118 1018)" fill="#FFFFFF"/>
</g>
<mask id="mask0_outline" mask-type="alpha">
<g id="Shape">
<use xlink:href="#path0_fill" transform="translate(5118 1018)" fill="#FFFFFF"/>
</g>
</mask>
</g>
</g>
<defs>
<path id="path0_fill" fill-rule="evenodd" d="M 16.5 0L 1.5 0C 0.660156 0 0 0.659973 0 1.5L 0 16.5C 0 17.34 0.660156 18 1.5 18L 8.3999 18L 12 18L 16.5 18C 17.3398 18 18 17.34 18 16.5L 18 1.5C 18 0.659973 17.3398 0 16.5 0ZM 9.05176 11.2609L 6.7998 11.2609L 6.7998 8.96521L 9.05176 8.96521L 9.05176 6.95654C 9.05176 5.32086 10.29 3.94348 11.8667 3.79999L 14.3999 3.79999L 14.3999 6.0957L 12.1479 6.0957C 11.6694 6.0957 11.3037 6.46863 11.3037 6.95654L 11.3037 8.96521L 14.1182 8.96521L 14.1182 11.2609L 11.3037 11.2609L 11.3037 17.2L 9.05176 17.2L 9.05176 11.2609ZM 11.9282 17.2L 16.3213 17.2C 16.8193 17.2 17.1997 16.8193 17.1997 16.3214L 17.1997 1.67859C 17.1997 1.18066 16.8193 0.799988 16.3213 0.799988L 1.67822 0.799988C 1.18066 0.799988 0.799805 1.18066 0.799805 1.67859L 0.799805 16.3214C 0.799805 16.8193 1.18066 17.2 1.67822 17.2L 8.41406 17.2L 8.41406 11.9286L 6.07129 11.9286L 6.07129 8.41431L 8.41406 8.41431L 8.41406 6.94995C 8.41406 4.98785 9.93701 3.31854 11.8989 3.14282L 15.1499 3.14282L 15.1499 6.6571L 12.2212 6.6571C 12.0454 6.6571 11.9282 6.77429 11.9282 6.94995L 11.9282 8.41431L 14.8569 8.41431L 14.8569 11.9286L 11.9282 11.9286L 11.9282 17.2Z"/>
</defs>
</svg>
