<svg width="24" height="24" viewBox="0 0 24 24" version="1.1" xmlns="http://www.w3.org/2000/svg" xmlns:xlink="http://www.w3.org/1999/xlink">
<title>twitter</title>
<desc>Created using Figma</desc>
<g id="Canvas" transform="translate(-5151 -1015)">
<g id="ic/24/social/twitter">
<g id="Shape">
<use xlink:href="#path0_fill" transform="translate(5154 1019.5)" fill="#FFFFFF"/>
</g>
<mask id="mask0_outline" mask-type="alpha">
<g id="Shape">
<use xlink:href="#path0_fill" transform="translate(5154 1019.5)" fill="#FFFFFF"/>
</g>
</mask>
</g>
</g>
<defs>
<path id="path0_fill" fill-rule="evenodd" d="M 17.5303 1.59485C 17.6524 1.5636 17.8052 1.59485 17.897 1.6886C 17.9883 1.78235 18.0191 1.93854 17.9888 2.0636C 17.7134 2.96973 17.1636 3.62598 16.4917 3.96967L 16.4917 4.06342C 16.4917 10.0941 12.0918 15 6.71486 15C 3.69045 15 1.24611 14.4688 0.146015 13.5626C 0.0239444 13.4376 -0.0370908 13.2814 0.0239444 13.0939C 0.0849795 12.9376 0.237812 12.8126 0.420917 12.8126C 2.22365 12.7814 3.38478 12.344 4.27053 11.8127C 2.55959 11.594 1.49025 10.7504 0.940448 9.15674C 0.879413 9.00049 0.940448 8.84424 1.06252 8.75049C 1.18508 8.65674 1.36818 8.65674 1.49025 8.71924C 1.94875 9.03174 2.40725 9.09424 2.95705 9.09424C 1.79592 8.37561 0.726581 7.18811 0.298847 5.71948C 0.268573 5.56323 0.329608 5.37586 0.451679 5.31336C 0.604511 5.21961 0.757343 5.25086 0.879413 5.34461C 1.21535 5.62573 1.58205 5.81323 2.13185 5.90698C 0.940448 4.65711 0.20705 2.81354 1.24611 0.782411L 1.42922 0.407472L 1.73488 0.719911C 3.62892 2.75098 5.37062 3.68842 8.54787 4.31336L 8.54787 4.18842C 8.54787 1.90735 10.2896 0.0324716 12.4585 0.0012216C 13.314 0.0012216 14.5054 0.626222 14.9946 0.907411C 15.0064 0.907411 15.0176 0.911927 15.0279 0.915833C 15.044 0.92212 15.0557 0.926759 15.0557 0.907411C 15.6665 0.719972 16.3999 0.407472 17.2554 0.0324716C 17.3775 -0.0299674 17.5303 0.00128264 17.6221 0.0950326C 17.7134 0.188783 17.7442 0.313783 17.6831 0.469972C 17.5303 0.907472 17.2857 1.37616 16.9195 1.8136L 17.5303 1.59485ZM 15.7354 3.73773L 15.9131 3.67737C 16.4761 3.46613 16.8023 3.01343 17.0098 2.62116L 15.854 3.01343C 15.7056 3.07385 15.5279 3.01343 15.4688 2.86255C 15.4092 2.71167 15.439 2.53058 15.5576 2.44006C 16.0318 2.04767 16.3872 1.62518 16.6543 1.17249C 16.0615 1.41394 15.5279 1.62518 15.083 1.77606C 14.9053 1.83643 14.7276 1.80621 14.5498 1.7157L 14.5308 1.70508C 14.1817 1.51111 13.0845 0.901429 12.4155 0.931031C 10.6372 0.961244 9.21437 2.50037 9.21437 4.37152L 9.21437 5.21655L 8.85891 5.15613C 5.59865 4.55249 3.79055 3.67737 1.89357 1.77606C 1.00441 4.0697 2.84182 5.66919 3.46437 6.12195L 4.2051 6.66516L 3.28664 6.66516C 2.69387 6.66516 2.04152 6.60474 1.44875 6.33313C 2.10109 7.72144 3.43459 8.74744 4.56105 9.07947L 4.47219 9.68311C 4.23488 9.68311 3.99807 9.68311 3.76076 9.71326C 3.1382 9.74341 2.57521 9.74341 2.04152 9.56238C 2.6343 10.7091 3.67189 11.192 5.36135 11.192L 6.25051 11.192L 5.5093 11.7352C 4.59084 12.4596 3.40529 13.1235 1.35988 13.2744C 2.33791 13.7573 4.14601 14.21 6.84328 14.21C 11.4644 14.21 15.7354 9.49902 15.7354 4.25079L 15.7354 3.73773Z"/>
</defs>
</svg>
