<svg width="24" height="24" viewBox="0 0 24 24" version="1.1" xmlns="http://www.w3.org/2000/svg" xmlns:xlink="http://www.w3.org/1999/xlink">
<title>instagram</title>
<desc>Created using Figma</desc>
<g id="Canvas" transform="translate(-1790 -1601)">
<g id="ic/24/social/instagram">
<g id="Combined Shape">
<use xlink:href="#path0_fill" transform="translate(1793 1604)" fill="#FFFFFF"/>
</g>
<mask id="mask0_outline" mask-type="alpha">
<g id="Combined Shape">
<use xlink:href="#path0_fill" transform="translate(1793 1604)" fill="#FFFFFF"/>
</g>
</mask>
</g>
</g>
<defs>
<path id="path0_fill" fill-rule="evenodd" d="M 13.0326 0L 4.96729 0C 2.22827 0 0 2.22839 0 4.96741L 0 13.0326C 0 15.7717 2.22827 18 4.96729 18L 13.0326 18C 15.7717 18 18 15.7716 18 13.0326L 18 4.96741C 18.0001 2.22839 15.7717 0 13.0326 0ZM 17.0001 13.3579C 17.0001 15.3662 15.3662 17 13.3579 17L 4.64197 17C 2.63379 17.0001 1 15.3662 1 13.3579L 1 4.64209C 1 2.63391 2.63379 1 4.64197 1L 13.3578 1C 15.3661 1 17 2.63391 17 4.64209L 17.0001 13.3579ZM 4.36182 9.00024C 4.36182 6.44275 6.4425 4.36206 9 4.36206C 11.5575 4.36206 13.6381 6.44275 13.6381 9.00024C 13.6381 11.5576 11.5575 13.6382 9 13.6382C 6.4425 13.6382 4.36182 11.5576 4.36182 9.00024ZM 9 12.8397C 6.88269 12.8397 5.16003 11.1173 5.16003 9C 5.16003 6.88257 6.88257 5.16003 9 5.16003C 11.1174 5.16003 12.8401 6.88257 12.8401 9C 12.8401 11.1173 11.1173 12.8397 9 12.8397ZM 13.4348 2.83411C 13.5833 2.68506 13.7898 2.59998 14 2.59998C 14.2108 2.59998 14.4174 2.68506 14.5658 2.83411C 14.7148 2.98254 14.7999 3.18909 14.7999 3.40002C 14.7999 3.61011 14.7148 3.81665 14.5658 3.96582C 14.4166 4.11414 14.2108 4.19995 14 4.19995C 13.7898 4.19995 13.5833 4.11414 13.4348 3.96582C 13.2858 3.81665 13.2 3.61023 13.2 3.40002C 13.2 3.18909 13.2856 2.98254 13.4348 2.83411Z"/>
</defs>
</svg>
