<svg width="24" height="24" viewBox="0 0 24 24" version="1.1" xmlns="http://www.w3.org/2000/svg" xmlns:xlink="http://www.w3.org/1999/xlink">
<title>twitter</title>
<desc>Created using Figma</desc>
<g id="Canvas" transform="translate(-786 -1954)">
<g id="ic/24/social/twitter">
<g id="Shape">
<use xlink:href="#path0_fill" transform="translate(789 1958.5)" fill="#FFFFFF"/>
</g>
<mask id="mask0_outline" mask-type="alpha">
<g id="Shape">
<use xlink:href="#path0_fill" transform="translate(789 1958.5)" fill="#FFFFFF"/>
</g>
</mask>
</g>
</g>
<defs>
<path id="path0_fill" fill-rule="evenodd" d="M 17.5303 1.59489C 17.6525 1.56364 17.8052 1.59489 17.8969 1.68864C 17.9885 1.78239 18.0191 1.93864 17.9886 2.06364C 17.7136 2.96977 17.1637 3.62602 16.4915 3.96977L 16.4915 4.0634C 16.4915 10.0942 12.092 15 6.71485 15C 3.69019 15 1.2461 14.4688 0.146187 13.5627C 0.0239946 13.4377 -0.0371626 13.2814 0.0239946 13.0939C 0.0850908 12.9377 0.237801 12.8127 0.42115 12.8127C 2.2237 12.7814 3.38471 12.344 4.2707 11.8128C 2.55976 11.594 1.49043 10.7504 0.940499 9.15678C 0.879402 9.00053 0.940499 8.84428 1.06269 8.75053C 1.18494 8.65678 1.36823 8.65678 1.49043 8.71928C 1.94874 9.03178 2.40699 9.09428 2.95692 9.09428C 1.79597 8.37566 0.726631 7.18816 0.298897 5.71953C 0.268379 5.56328 0.329476 5.3759 0.451668 5.3134C 0.604439 5.21965 0.75721 5.2509 0.879402 5.34465C 1.21546 5.62578 1.5821 5.81328 2.13203 5.90703C 0.940499 4.65715 0.207283 2.81352 1.24604 0.782516L 1.42933 0.407516L 1.73481 0.720016C 3.62904 2.75102 5.37049 3.68852 8.54792 4.3134L 8.54792 4.1884C 8.54792 1.90739 10.2894 0.0325162 12.4586 0.0012662C 13.314 0.0012662 14.5056 0.626266 14.9944 0.907516C 15.0061 0.907516 15.0178 0.912033 15.0277 0.915939C 15.0439 0.922287 15.0555 0.926803 15.0555 0.907516C 15.6666 0.720016 16.3998 0.407516 17.2553 0.0325162C 17.3775 -0.0299838 17.5303 0.0012662 17.6219 0.0950162C 17.7136 0.188766 17.7441 0.313766 17.683 0.470016C 17.5302 0.907516 17.2858 1.37627 16.9192 1.81364L 17.5303 1.59489ZM 15.7354 3.73784L 15.9133 3.67741C 16.4764 3.46623 16.8025 3.01347 17.01 2.62126L 15.854 3.0136C 15.7058 3.0739 15.528 3.0136 15.4687 2.86272C 15.4094 2.71172 15.4391 2.53069 15.5576 2.44011C 16.0319 2.04778 16.3875 1.62529 16.6543 1.17265C 16.0615 1.41399 15.528 1.62529 15.0834 1.77617C 14.9056 1.83647 14.7277 1.80632 14.5499 1.71587L 14.5314 1.70561C 14.1834 1.51201 13.0852 0.901413 12.4158 0.931198C 10.6374 0.961349 9.21467 2.50053 9.21467 4.37163L 9.21467 5.2166L 8.85896 5.1563C 5.59858 4.55266 3.79054 3.67741 1.89356 1.77617C 1.00434 4.06975 2.84199 5.66936 3.46449 6.12199L 4.20545 6.66521L 3.28657 6.66521C 2.69379 6.66521 2.04169 6.6049 1.44892 6.3333C 2.10102 7.72148 3.43482 8.7476 4.5611 9.07964L 4.47224 9.68315C 4.23512 9.68315 3.99799 9.68315 3.76087 9.7133C 3.13844 9.74358 2.57526 9.74358 2.04176 9.56242C 2.63453 10.7093 3.67194 11.1922 5.3614 11.1922L 6.25062 11.1922L 5.50965 11.7354C 4.59077 12.4596 3.40516 13.1236 1.35999 13.2746C 2.33808 13.7574 4.14613 14.2101 6.84339 14.2101C 11.4647 14.2101 15.7354 9.49907 15.7354 4.2509L 15.7354 3.73784Z"/>
</defs>
</svg>
