<svg width="7" height="14" viewBox="0 0 7 14" version="1.1" xmlns="http://www.w3.org/2000/svg" xmlns:xlink="http://www.w3.org/1999/xlink">
<title>world</title>
<desc>Created using Figma</desc>
<g id="Canvas" transform="translate(-5139 -921)">
<g id="world">
<g id="Shape">
<use xlink:href="#path0_fill" transform="translate(5131 920.141)" fill="#FFFFFF"/>
</g>
</g>
</g>
<defs>
<path id="path0_fill" fill-rule="evenodd" d="M 11.1108 5.28503C 10.6499 3.06976 9.26221 1.40381 8.41992 1.05432L 8.41992 5.39734C 9.26221 5.38696 10.3701 5.34399 11.1108 5.28503ZM 14.0244 4.82159C 13.8711 4.86877 13.249 5.04224 12.0186 5.18793C 11.7407 3.71143 11.2397 2.45331 10.5864 1.54498C 12.0845 2.19427 13.3027 3.3631 14.0244 4.82159ZM 8.41992 6.37585C 9.26221 6.36493 10.4424 6.3186 11.2261 6.25348C 11.2905 6.77167 11.3071 7.30811 11.3071 7.85968C 11.3071 8.56812 11.2817 9.25531 11.1772 9.90454C 10.4058 9.84222 9.26221 9.79736 8.41992 9.78723L 8.41992 6.37585ZM 8.41992 10.7657L 8.41992 14.6653C 9.26221 14.3394 10.5088 12.8662 11.0088 10.871C 10.2871 10.8154 9.26221 10.7759 8.41992 10.7657ZM 10.5864 14.1749C 11.1753 13.3563 11.6445 12.2577 11.9336 10.9673C 12.9019 11.0787 13.5112 11.2084 13.8188 11.2859C 13.0786 12.5703 11.9453 13.583 10.5864 14.1749ZM 12.167 6.15521C 12.3145 7.4342 12.2949 8.72699 12.1079 10.0009C 13.3027 10.1409 13.9824 10.3099 14.2529 10.3888C 14.5645 9.60504 14.7412 8.75311 14.7412 7.85968C 14.7407 6.9765 14.5693 6.10181 14.2358 5.28394L 14.394 5.73022C 14.3496 5.74597 13.6797 5.97363 12.167 6.15521Z"/>
</defs>
</svg>
