<svg width="16" height="16" viewBox="0 0 16 16" version="1.1" xmlns="http://www.w3.org/2000/svg" xmlns:xlink="http://www.w3.org/1999/xlink">
<title>search</title>
<desc>Created using Figma</desc>
<g id="Canvas" transform="translate(-1718 386)">
<g id="search">
<g id="Shape">
<use xlink:href="#path0_fill" transform="translate(1718 -386)" fill="#262626"/>
</g>
</g>
</g>
<defs>
<path id="path0_fill" fill-rule="evenodd" d="M 6.03638 0C 9.30908 0 12 2.61819 12 5.96362C 12 7.49091 11.4182 8.87274 10.5454 9.81818L 16 15.2727L 15.3455 15.9273L 9.89087 10.4727C 8.80005 11.3455 7.41821 11.9273 5.96362 11.9273C 2.69092 11.9273 0 9.30908 0 5.96362C 0 2.69092 2.69092 0 6.03638 0ZM 0.872681 5.96365C 0.872681 8.80002 3.19995 11.0546 5.96362 11.0546C 8.79993 11.0546 11.0544 8.80002 11.0544 5.96365C 11.0544 3.12729 8.79993 0.872742 5.96362 0.872742C 3.1272 0.872742 0.872681 3.20001 0.872681 5.96365Z"/>
</defs>
</svg>
